C:\Users\Nicos\Documents\OpenSimProjects\SprintingProject\Study1\PredictiveResults\IC_pred_Sprinting_optimum_28-October-2023__01-01-41_p02_maxVel_01___HTD_Minus_2_GRF.mot
version=1
nRows=8
nColumns=127
inDegrees=yes
endheader
time	ground_force_vx	ground_force_vy	ground_force_vz	ground_force_px	ground_force_py	ground_force_pz	ground_torque_x	ground_torque_y	ground_torque_z	1_ground_force_vx	1_ground_force_vy	1_ground_force_vz	1_ground_force_px	1_ground_force_py	1_ground_force_pz	1_ground_torque_x	1_ground_torque_y	1_ground_torque_z	2_ground_force_vx	2_ground_force_vy	2_ground_force_vz	2_ground_force_px	2_ground_force_py	2_ground_force_pz	2_ground_torque_x	2_ground_torque_y	2_ground_torque_z	3_ground_force_vx	3_ground_force_vy	3_ground_force_vz	3_ground_force_px	3_ground_force_py	3_ground_force_pz	3_ground_torque_x	3_ground_torque_y	3_ground_torque_z	4_ground_force_vx	4_ground_force_vy	4_ground_force_vz	4_ground_force_px	4_ground_force_py	4_ground_force_pz	4_ground_torque_x	4_ground_torque_y	4_ground_torque_z	5_ground_force_vx	5_ground_force_vy	5_ground_force_vz	5_ground_force_px	5_ground_force_py	5_ground_force_pz	5_ground_torque_x	5_ground_torque_y	5_ground_torque_z	6_ground_force_vx	6_ground_force_vy	6_ground_force_vz	6_ground_force_px	6_ground_force_py	6_ground_force_pz	6_ground_torque_x	6_ground_torque_y	6_ground_torque_z	7_ground_force_vx	7_ground_force_vy	7_ground_force_vz	7_ground_force_px	7_ground_force_py	7_ground_force_pz	7_ground_torque_x	7_ground_torque_y	7_ground_torque_z	8_ground_force_vx	8_ground_force_vy	8_ground_force_vz	8_ground_force_px	8_ground_force_py	8_ground_force_pz	8_ground_torque_x	8_ground_torque_y	8_ground_torque_z	9_ground_force_vx	9_ground_force_vy	9_ground_force_vz	9_ground_force_px	9_ground_force_py	9_ground_force_pz	9_ground_torque_x	9_ground_torque_y	9_ground_torque_z	10_ground_force_vx	10_ground_force_vy	10_ground_force_vz	10_ground_force_px	10_ground_force_py	10_ground_force_pz	10_ground_torque_x	10_ground_torque_y	10_ground_torque_z	11_ground_force_vx	11_ground_force_vy	11_ground_force_vz	11_ground_force_px	11_ground_force_py	11_ground_force_pz	11_ground_torque_x	11_ground_torque_y	11_ground_torque_z	12_ground_force_vx	12_ground_force_vy	12_ground_force_vz	12_ground_force_px	12_ground_force_py	12_ground_force_pz	12_ground_torque_x	12_ground_torque_y	12_ground_torque_z	13_ground_force_vx	13_ground_force_vy	13_ground_force_vz	13_ground_force_px	13_ground_force_py	13_ground_force_pz	13_ground_torque_x	13_ground_torque_y	13_ground_torque_z
0.208905	-0.000000	0.000000	-0.000000	1.076846	0.196887	0.438245	0.000000	0.000000	0.000000	-0.000000	0.000000	-0.000000	1.099062	0.216496	0.459118	0.000000	0.000000	0.000000	-0.000000	0.000000	-0.000000	1.114934	0.226121	0.456619	0.000000	0.000000	0.000000	-0.000000	0.000000	-0.000000	1.111235	0.224758	0.434362	0.000000	0.000000	0.000000	-0.000000	0.000000	-0.000000	1.151578	0.265388	0.486860	0.000000	0.000000	0.000000	-0.000000	0.000000	-0.000000	1.125929	0.239834	0.451433	0.000000	0.000000	0.000000	-0.000000	0.000000	-0.000000	1.169907	0.294687	0.430688	0.000000	0.000000	0.000000	-0.000000	0.000000	0.000000	2.356627	0.097519	0.127095	0.000000	0.000000	0.000000	-0.000000	0.000000	0.000000	2.312495	0.098514	0.104388	0.000000	0.000000	0.000000	-0.000000	0.000000	-0.000000	2.281434	0.094780	0.110951	0.000000	0.000000	0.000000	-0.000000	0.000000	-0.000000	2.285219	0.090417	0.131591	0.000000	0.000000	0.000000	-0.000000	0.000000	0.000000	2.195503	0.096932	0.078980	0.000000	0.000000	0.000000	-0.000000	0.000000	0.000000	2.252020	0.092347	0.114288	0.000000	0.000000	0.000000	-0.000000	0.000000	0.000000	2.134363	0.082617	0.127635	0.000000	0.000000	0.000000
0.210348	-0.000000	0.000000	-0.000000	1.097550	0.198774	0.439529	0.000000	0.000000	0.000000	-0.000000	0.000000	-0.000000	1.119853	0.218393	0.460268	0.000000	0.000000	0.000000	-0.000000	0.000000	-0.000000	1.135721	0.228013	0.457686	0.000000	0.000000	0.000000	-0.000000	0.000000	-0.000000	1.131936	0.226637	0.435447	0.000000	0.000000	0.000000	-0.000000	0.000000	-0.000000	1.172494	0.267296	0.487689	0.000000	0.000000	0.000000	-0.000000	0.000000	-0.000000	1.146700	0.241722	0.452424	0.000000	0.000000	0.000000	-0.000000	0.000000	-0.000000	1.190619	0.296559	0.431375	0.000000	0.000000	0.000000	-0.000000	0.000000	0.000000	2.372071	0.096148	0.127873	0.000000	0.000000	0.000000	-0.000000	0.000000	0.000000	2.328059	0.097142	0.104933	0.000000	0.000000	0.000000	-0.000000	0.000000	-0.000000	2.296736	0.093187	0.111456	0.000000	0.000000	0.000000	-0.000000	0.000000	-0.000000	2.300439	0.088791	0.132083	0.000000	0.000000	0.000000	-0.000000	0.000000	-0.000000	2.210902	0.095519	0.079275	0.000000	0.000000	0.000000	-0.000000	0.000000	-0.000000	2.267297	0.090797	0.114704	0.000000	0.000000	0.000000	-0.000000	0.000000	0.000000	2.149544	0.081240	0.127697	0.000000	0.000000	0.000000
0.210977	-0.000000	0.000000	-0.000000	1.106648	0.199574	0.440100	0.000000	0.000000	0.000000	-0.000000	0.000000	-0.000000	1.128987	0.219200	0.460778	0.000000	0.000000	0.000000	-0.000000	0.000000	-0.000000	1.144850	0.228819	0.458160	0.000000	0.000000	0.000000	-0.000000	0.000000	-0.000000	1.141026	0.227436	0.435929	0.000000	0.000000	0.000000	-0.000000	0.000000	-0.000000	1.181672	0.268110	0.488055	0.000000	0.000000	0.000000	-0.000000	0.000000	-0.000000	1.155819	0.242526	0.452863	0.000000	0.000000	0.000000	-0.000000	0.000000	-0.000000	1.199698	0.297357	0.431677	0.000000	0.000000	0.000000	-0.000000	0.000000	0.000000	2.378710	0.095522	0.128300	0.000000	0.000000	0.000000	-0.000000	0.000000	0.000000	2.334762	0.096512	0.105236	0.000000	0.000000	0.000000	-0.000000	0.000000	-0.000000	2.303312	0.092456	0.111732	0.000000	0.000000	0.000000	-0.000000	0.000000	-0.000000	2.306970	0.088051	0.132359	0.000000	0.000000	0.000000	-0.000000	0.000000	-0.000000	2.217535	0.094870	0.079424	0.000000	0.000000	0.000000	-0.000000	0.000000	-0.000000	2.273861	0.090090	0.114933	0.000000	0.000000	0.000000	-0.000000	0.000000	0.000000	2.156057	0.080625	0.127736	0.000000	0.000000	0.000000
0.212967	-0.000000	0.000000	-0.000000	1.135616	0.202012	0.441952	0.000000	0.000000	0.000000	-0.000000	0.000000	-0.000000	1.158054	0.221661	0.462431	0.000000	0.000000	0.000000	-0.000000	0.000000	-0.000000	1.173893	0.231279	0.459692	0.000000	0.000000	0.000000	-0.000000	0.000000	-0.000000	1.169945	0.229875	0.437488	0.000000	0.000000	0.000000	-0.000000	0.000000	-0.000000	1.210842	0.270607	0.489233	0.000000	0.000000	0.000000	-0.000000	0.000000	-0.000000	1.184817	0.244985	0.454282	0.000000	0.000000	0.000000	-0.000000	0.000000	-0.000000	1.228515	0.299808	0.432646	0.000000	0.000000	0.000000	-0.000000	0.000000	-0.000000	2.399250	0.093389	0.130010	0.000000	0.000000	0.000000	-0.000000	0.000000	0.000000	2.355551	0.094360	0.106475	0.000000	0.000000	0.000000	-0.000000	0.000000	-0.000000	2.323679	0.090002	0.112842	0.000000	0.000000	0.000000	-0.000000	0.000000	-0.000000	2.327151	0.085586	0.133492	0.000000	0.000000	0.000000	-0.000000	0.000000	-0.000000	2.238139	0.092680	0.079992	0.000000	0.000000	0.000000	-0.000000	0.000000	-0.000000	2.294180	0.087728	0.115857	0.000000	0.000000	0.000000	-0.000000	0.000000	-0.000000	2.176182	0.078629	0.127915	0.000000	0.000000	0.000000
0.214409	-0.000000	0.000000	-0.000000	1.156821	0.203688	0.443342	0.000000	0.000000	0.000000	-0.000000	0.000000	-0.000000	1.179317	0.223361	0.463668	0.000000	0.000000	0.000000	-0.000000	0.000000	-0.000000	1.195129	0.232982	0.460834	0.000000	0.000000	0.000000	-0.000000	0.000000	-0.000000	1.191086	0.231561	0.438651	0.000000	0.000000	0.000000	-0.000000	0.000000	-0.000000	1.232145	0.272346	0.490105	0.000000	0.000000	0.000000	-0.000000	0.000000	-0.000000	1.206008	0.246689	0.455339	0.000000	0.000000	0.000000	-0.000000	0.000000	-0.000000	1.249524	0.301514	0.433362	0.000000	0.000000	0.000000	-0.000000	0.000000	-0.000000	2.413714	0.091673	0.131556	0.000000	0.000000	0.000000	-0.000000	0.000000	-0.000000	2.370231	0.092634	0.107624	0.000000	0.000000	0.000000	-0.000000	0.000000	-0.000000	2.338047	0.088087	0.113860	0.000000	0.000000	0.000000	-0.000000	0.000000	-0.000000	2.341350	0.083682	0.134548	0.000000	0.000000	0.000000	-0.000000	0.000000	-0.000000	2.252732	0.090965	0.080496	0.000000	0.000000	0.000000	-0.000000	0.000000	-0.000000	2.308506	0.085895	0.116710	0.000000	0.000000	0.000000	-0.000000	0.000000	-0.000000	2.190342	0.077129	0.128109	0.000000	0.000000	0.000000
0.215039	-0.000000	0.000000	-0.000000	1.166137	0.204396	0.443962	0.000000	0.000000	0.000000	-0.000000	0.000000	-0.000000	1.188654	0.224080	0.464220	0.000000	0.000000	0.000000	-0.000000	0.000000	-0.000000	1.204451	0.233705	0.461341	0.000000	0.000000	0.000000	-0.000000	0.000000	-0.000000	1.200365	0.232277	0.439168	0.000000	0.000000	0.000000	-0.000000	0.000000	-0.000000	1.241489	0.273086	0.490491	0.000000	0.000000	0.000000	-0.000000	0.000000	-0.000000	1.215307	0.247412	0.455808	0.000000	0.000000	0.000000	-0.000000	0.000000	-0.000000	1.258731	0.302241	0.433678	0.000000	0.000000	0.000000	-0.000000	0.000000	-0.000000	2.419916	0.090872	0.132301	0.000000	0.000000	0.000000	-0.000000	0.000000	-0.000000	2.376534	0.091830	0.108186	0.000000	0.000000	0.000000	-0.000000	0.000000	-0.000000	2.344217	0.087215	0.114357	0.000000	0.000000	0.000000	-0.000000	0.000000	-0.000000	2.347438	0.082820	0.135065	0.000000	0.000000	0.000000	-0.000000	0.000000	-0.000000	2.259014	0.090182	0.080741	0.000000	0.000000	0.000000	-0.000000	0.000000	-0.000000	2.314657	0.085064	0.117128	0.000000	0.000000	0.000000	-0.000000	0.000000	-0.000000	2.196416	0.076460	0.128212	0.000000	0.000000	0.000000
0.217029	-0.000000	0.000000	-0.000000	1.195798	0.206528	0.445979	0.000000	0.000000	0.000000	-0.000000	0.000000	-0.000000	1.218360	0.226257	0.466014	0.000000	0.000000	0.000000	-0.000000	0.000000	-0.000000	1.234094	0.235907	0.462975	0.000000	0.000000	0.000000	-0.000000	0.000000	-0.000000	1.229872	0.234453	0.440835	0.000000	0.000000	0.000000	-0.000000	0.000000	-0.000000	1.271175	0.275350	0.491731	0.000000	0.000000	0.000000	-0.000000	0.000000	-0.000000	1.244864	0.249618	0.457319	0.000000	0.000000	0.000000	-0.000000	0.000000	-0.000000	1.287947	0.304463	0.434692	0.000000	0.000000	0.000000	-0.000000	0.000000	-0.000000	2.439047	0.088103	0.134859	0.000000	0.000000	0.000000	-0.000000	0.000000	-0.000000	2.395997	0.089077	0.110158	0.000000	0.000000	0.000000	-0.000000	0.000000	-0.000000	2.363292	0.084326	0.116098	0.000000	0.000000	0.000000	-0.000000	0.000000	-0.000000	2.366228	0.079977	0.136887	0.000000	0.000000	0.000000	-0.000000	0.000000	-0.000000	2.278481	0.087588	0.081611	0.000000	0.000000	0.000000	-0.000000	0.000000	-0.000000	2.333667	0.082320	0.118602	0.000000	0.000000	0.000000	-0.000000	0.000000	-0.000000	2.215168	0.074296	0.128620	0.000000	0.000000	0.000000
0.218471	-0.000000	0.000000	-0.000000	1.217514	0.207973	0.447493	0.000000	0.000000	0.000000	-0.000000	0.000000	-0.000000	1.240085	0.227741	0.467360	0.000000	0.000000	0.000000	-0.000000	0.000000	-0.000000	1.255756	0.237423	0.464187	0.000000	0.000000	0.000000	-0.000000	0.000000	-0.000000	1.251433	0.235948	0.442072	0.000000	0.000000	0.000000	-0.000000	0.000000	-0.000000	1.292840	0.276919	0.492647	0.000000	0.000000	0.000000	-0.000000	0.000000	-0.000000	1.266452	0.251139	0.458438	0.000000	0.000000	0.000000	-0.000000	0.000000	-0.000000	1.309237	0.306004	0.435441	0.000000	0.000000	0.000000	-0.000000	0.000000	-0.000000	2.452470	0.085876	0.136823	0.000000	0.000000	0.000000	-0.000000	0.000000	-0.000000	2.409661	0.086888	0.111711	0.000000	0.000000	0.000000	-0.000000	0.000000	-0.000000	2.376708	0.082111	0.117473	0.000000	0.000000	0.000000	-0.000000	0.000000	-0.000000	2.379422	0.077807	0.138330	0.000000	0.000000	0.000000	-0.000000	0.000000	-0.000000	2.292207	0.085607	0.082323	0.000000	0.000000	0.000000	-0.000000	0.000000	-0.000000	2.347035	0.080226	0.119779	0.000000	0.000000	0.000000	-0.000000	0.000000	-0.000000	2.228345	0.072683	0.128999	0.000000	0.000000	0.000000
